<svg width="151" height="148" viewBox="0 0 151 148" fill="none" xmlns="http://www.w3.org/2000/svg">
<g clip-path="url(#clip0_200_399)">
<path d="M129.915 124.038C157.552 96.4028 157.552 51.5978 129.915 23.9628C102.277 -3.67212 57.468 -3.67211 29.8305 23.9628C2.19304 51.5978 2.19304 96.4028 29.8305 124.038C57.468 151.673 102.277 151.673 129.915 124.038Z" fill="#1B293B"/>
<path d="M122.251 116.375C145.656 92.9719 145.656 55.0287 122.251 31.626C98.8459 8.22332 60.8992 8.22333 37.4944 31.626C14.0896 55.0287 14.0896 92.9719 37.4944 116.375C60.8992 139.777 98.8459 139.777 122.251 116.375Z" fill="#C9AE5B"/>
<path d="M79.8708 14.0717C91.7249 14.0717 103.313 17.5866 113.169 24.1718C123.026 30.757 130.708 40.1168 135.244 51.0676C139.78 62.0184 140.967 74.0683 138.655 85.6936C136.342 97.3189 130.634 107.997 122.252 116.379C113.87 124.76 103.19 130.468 91.5637 132.78C79.9373 135.093 67.8862 133.906 56.9344 129.37C45.9826 124.834 36.622 117.153 30.0362 107.297C23.4504 97.4418 19.9352 85.8549 19.9352 74.0018C19.9347 66.1316 21.4846 58.3383 24.4965 51.067C27.5084 43.7957 31.9232 37.1889 37.4888 31.6237C43.0544 26.0586 49.6619 21.6442 56.9338 18.6326C64.2058 15.621 71.9998 14.0712 79.8708 14.0717ZM79.8708 12.9261C67.7921 12.9273 55.985 16.5094 45.9421 23.2197C35.8993 29.93 28.0717 39.467 23.4491 50.6251C18.8264 61.7832 17.6162 74.0613 19.9716 85.907C22.3269 97.7527 28.142 108.634 36.6816 117.176C48.1716 128.45 63.6486 134.733 79.7468 134.658C95.845 134.582 111.263 128.155 122.647 116.774C134.031 105.392 140.461 89.9769 140.538 73.8802C140.615 57.7834 134.334 42.307 123.06 30.8166C117.402 25.1272 110.671 20.6165 103.258 17.5457C95.8441 14.4748 87.8952 12.9046 79.8708 12.9261Z" fill="#E2D8A7"/>
<mask id="mask0_200_399" style="mask-type:luminance" maskUnits="userSpaceOnUse" x="0" y="8" width="140" height="126">
<path d="M139.803 74.0019C139.794 85.1617 136.671 96.0976 130.784 105.579C124.897 115.06 116.481 122.71 106.482 127.668C96.4828 132.626 85.2984 134.695 74.1874 133.642C63.0763 132.589 52.4797 128.456 43.5902 121.708C43.5902 121.708 27.8063 132.103 19.1829 124.973C-0.763789 108.481 0.381915 52.9649 0.381915 40.2182C0.381915 22.744 17.2887 11.1085 34.3711 9.04258C49.6472 7.19817 64.2473 14.0718 79.8709 14.0718C87.7415 14.0718 95.5351 15.6219 102.807 18.6337C110.078 21.6456 116.685 26.06 122.25 31.6251C127.816 37.1902 132.23 43.7969 135.242 51.0679C138.253 58.339 139.803 66.1319 139.803 74.0019Z" fill="white"/>
</mask>
<g mask="url(#mask0_200_399)">
<path d="M57.1554 110.963C57.1554 110.963 51.3734 126.734 37.1743 133.928C37.1743 133.928 46.5767 150.012 82.6931 153.785C118.81 157.558 139.497 125.455 149.969 107.518C149.969 107.518 144.748 89.1162 131.58 73.8721C116.236 56.1076 107.792 52.4876 95.2157 50.6622L57.1554 110.963Z" fill="#1B293B"/>
<path d="M144.118 107.484C144.118 107.484 143.221 109.084 141.54 111.658C136.037 120.078 122.151 138.95 103.675 146.522C99.8734 148.13 95.834 149.104 91.7174 149.405C58.1903 151.582 49.5975 136.899 49.5975 136.899C49.5975 136.899 60.371 123.373 62.1545 112.685C62.7693 109.115 52.4923 104.402 51.5758 101.668C51.5758 101.668 59.8669 95.0886 69.5633 86.7754C77.3236 80.1156 85.9851 72.3523 92.0153 65.9636C95.7121 62.0381 98.4198 58.628 99.3478 56.3101C99.3478 56.3101 103.549 57.5091 109.361 60.7626C116.089 64.5214 122.096 69.4435 127.104 75.3003C139.551 89.9105 144.118 107.484 144.118 107.484Z" fill="#838891"/>
<path d="M144.118 107.484C144.118 107.484 143.221 109.084 141.54 111.658C135.525 88.2608 116.511 74.7427 116.511 74.7427C122.075 77.664 129.362 83.3729 129.362 83.3729C121.888 71.9895 106.68 62.3703 106.68 62.3703L109.354 60.7779C116.081 64.5366 122.089 69.4588 127.097 75.3155C139.551 89.9105 144.118 107.484 144.118 107.484Z" fill="white"/>
<path d="M103.671 146.537C99.8696 148.145 95.8303 149.119 91.7137 149.421C58.1866 151.597 52.0838 135.62 52.0838 135.62C52.0838 135.62 59.1528 128.196 60.9363 112.654C56.9263 115.66 41.6082 118.665 30.8386 118.558C22.5705 118.466 21.0581 110.779 19.7635 107.717C19.2717 106.464 18.9195 105.16 18.7133 103.829L28.9635 98.6552C34.6347 99.0027 39.5803 94.3936 41.1614 88.4212C42.7425 82.4488 44.1173 77.5533 48.1999 70.5078C48.1999 70.5078 49.5174 72.4171 49.2004 73.4176C48.8606 74.5021 49.8 75.9456 51.7248 73.4787C53.9857 70.5727 61.1769 60.8771 66.8443 59.2542C66.6724 59.3573 65.668 62.4008 65.668 62.4008C68.3795 61.4309 73.1075 63.0767 73.1075 63.0767C68.4826 63.8672 65.752 67.6896 66.6419 67.6973C66.6419 67.6973 68.8531 74.2425 66.2142 79.1991C62.9298 85.3624 49.4792 86.8632 44.6596 91.3043C39.5727 95.9974 36.0669 99.3693 36.086 101.485C36.105 103.6 39.7904 104.433 39.7904 104.433C39.7904 104.433 47.6499 104.131 54.9481 97.0399C62.2462 89.9486 66.5082 88.6847 66.5082 88.6847C66.5082 88.6847 67.5508 89.1887 70.0866 90.4871C73.5963 92.2628 78.6374 91.1172 82.1394 89.0322C88.2804 85.3739 88.1658 77.6793 88.1276 77.1561C88.2346 77.2974 89.8157 79.3709 91.3853 83.3118C94.2877 90.5902 98.8514 101.596 86.6802 143.505C86.6802 143.505 104.381 131.125 104.003 94.279C104.003 94.279 112.432 128.83 103.671 146.537Z" fill="#50535A"/>
<path d="M43.3611 67.1359C39.4734 66.4219 26.8439 64.3636 15.1424 55.1072C3.44097 45.8507 2.29145 39.8669 2.03176 37.9041C1.52765 34.4444 3.69685 33.4859 8.37896 35.7656C12.6181 37.8277 27.348 44.2163 39.5612 44.8235C51.9272 45.4345 53.6916 45.1786 53.6419 52.079C53.5923 58.9793 52.8476 66.5899 49.1622 67.6744C45.4769 68.7589 43.3611 67.1359 43.3611 67.1359Z" fill="#1B293B"/>
<path d="M44.1249 49.1691C40.7718 49.7038 31.1173 48.3214 23.0477 45.8927C14.9782 43.4641 6.46558 39.2253 6.46558 39.2253C6.46558 39.2253 8.90975 46.0417 18.9538 52.709C28.9978 59.3764 43.4756 62.5116 43.4756 62.5116L44.1249 49.1691Z" fill="#A59688"/>
<path d="M43.9187 53.1749L44.1134 49.1692C40.7603 49.7038 31.1059 48.3214 23.0363 45.8927C19.0817 44.6554 15.2015 43.1917 11.415 41.5089C12.3812 42.139 24.4417 49.9596 43.9187 53.1749Z" fill="white"/>
<path d="M38.8127 53.6713C34.623 53.7403 30.4464 53.1857 26.42 52.0255C22.7212 51.0483 19.0915 49.8262 15.5549 48.3672C14.121 47.7703 12.7189 47.0999 11.354 46.3586C13.6295 48.7627 16.1804 50.8904 18.9538 52.6976C28.9979 59.365 43.4757 62.5001 43.4757 62.5001L43.9187 53.1749C42.2287 53.4466 40.5234 53.6124 38.8127 53.6713Z" fill="#625C58"/>
<path d="M88.1124 77.1371L110.977 62.6261L78.3777 41.4555C72.8478 39.2788 64.0297 40.3099 61.8299 43.296C61.8299 43.296 57.7856 41.3676 52.0761 42.6851C50.4609 43.094 48.9089 43.7209 47.4628 44.5486C46.55 44.0483 45.0453 43.6588 42.8112 44.4569C38.7783 45.8927 37.1896 47.4775 36.5213 51.1167C35.853 54.7559 34.9364 57.3564 31.6597 61.8089C28.383 66.2615 27.8789 70.0725 28.3677 74.3571C28.8565 78.6416 24.4418 83.7472 22.4788 85.8436C20.5158 87.9401 15.6046 92.3888 14.898 98.6285C14.1915 104.868 16.6853 117.535 22.9791 120.082C38.2169 126.245 49.9184 116.962 56.9683 114.491C64.0182 112.021 69.1624 110.211 75.3225 109.909C81.4826 109.607 90.7589 100.526 91.3242 91.9611C91.6611 86.8167 90.5484 81.6808 88.1124 77.1371Z" fill="#1B293B"/>
<path d="M74.5549 42.9714C71.7517 46.6259 72.3513 52.2393 77.0143 57.9062C81.6773 63.5731 89.1855 60.8733 95.5098 60.2624C101.834 59.6514 110.102 48.497 112.077 38.7289C114.051 28.9608 112.531 23.7254 103.801 20.5215C95.0706 17.3176 82.5672 20.2771 72.4201 19.8036C58.389 19.1544 53.2524 16.0995 44.2816 12.93C37.667 10.5815 35.1159 9.82543 34.5087 12.6436C33.9015 15.4618 34.2834 18.9291 42.0894 26.8834C50.3691 35.3188 62.9222 40.2144 65.4656 40.8597C68.0091 41.5051 74.5549 42.9714 74.5549 42.9714Z" fill="#1B293B"/>
<path d="M91.5799 79.7834C91.6214 80.963 91.5562 82.144 91.3852 83.3118C90.6214 89.1277 87.5662 96.7192 81.7918 101.072C74.719 106.38 66.7258 105.361 59.0152 107.324C56.1815 108.053 54.1192 109.668 51.8049 111.398C47.7988 114.403 41.6082 118.654 30.8385 118.558C22.5704 118.466 21.058 110.779 19.7634 107.717C19.2716 106.464 18.9194 105.16 18.7132 103.83C17.9723 99.3311 18.1823 92.7783 23.0668 89.6012C29.7883 85.2212 31.8697 73.1122 31.8697 73.1122C31.4889 71.3207 31.5649 69.4622 32.0908 67.7079C32.6167 65.9535 33.5755 64.3596 34.8791 63.0729C39.4046 58.4141 38.6981 50.9677 40.768 49.0584C41.7571 48.1381 43.4795 48.2374 43.4795 48.2374C41.6005 50.2613 42.4063 52.8427 42.4063 52.8427C42.4063 52.8427 44.3158 49.3792 51.0526 47.6761C53.8863 46.962 59.4964 47.7257 59.4964 47.7257C59.527 50.2689 61.4938 52.2814 61.4938 52.2814C61.4938 52.2814 65.2135 45.2665 68.9714 43.1509C72.7293 41.0354 75.2346 44.4722 75.2346 44.4722C72.9088 46.7634 74.0469 51.4183 76.5178 56.944C78.9887 62.4696 85.3435 63.0958 85.3435 63.0958C89.0556 62.8591 91.114 64.8066 92 65.9675C92.2097 66.2209 92.3916 66.4961 92.5423 66.7885C98.4962 70.0267 106.963 69.5494 106.963 69.5494C103.258 75.3843 91.5799 79.7834 91.5799 79.7834Z" fill="#838891"/>
<path d="M88.1276 77.1561C88.1658 77.6793 88.5516 86.3209 82.3991 89.9868C78.9086 92.0756 75.9908 92.4231 70.0675 90.4833C67.3599 89.5935 66.4929 88.677 66.4929 88.677C66.4929 88.677 62.2309 89.9448 54.9328 97.0399C47.8982 103.879 40.3403 104.402 39.8095 104.433C35.1732 102.329 34.5889 99.354 37.6899 99.7741C39.5994 100.03 41.8297 97.101 42.8189 93.7138C46.6379 80.612 54.7724 88.8107 61.8528 84.3543C69.4909 79.539 66.0079 68.0677 66.0079 68.0677C65.1181 68.0677 68.4636 63.8672 73.0922 63.0767C73.0922 63.0767 68.3681 61.4347 65.6528 62.4008C66.2514 61.3769 67.0394 60.4762 67.9747 59.7468C59.4851 60.7931 49.0362 67.1589 47.1114 75.3613C46.3973 78.4163 42.8341 84.3276 41.1461 88.425C38.7936 94.153 34.6195 99.0027 28.9482 98.6552L18.7133 103.829C18.9146 105.159 19.2616 106.463 19.7482 107.717C21.0581 110.772 22.5705 118.466 30.8233 118.558C41.593 118.665 47.7836 114.403 51.7897 111.398C54.1041 109.668 56.1663 108.053 59 107.324C66.7106 105.361 74.7038 106.38 81.7766 101.072C87.5586 96.7191 90.5871 89.1276 91.37 83.3118C89.8157 79.3709 88.2193 77.2974 88.1276 77.1561Z" fill="#50535A"/>
<path d="M57.9574 70.4123C51.4841 76.2931 52.752 75.2277 51.7515 79.8101C51.7515 79.8101 52.6871 81.7767 56.9415 81.9791C62.2308 82.2311 64.9614 77.0683 65.6756 73.6811C66.4394 69.9923 66.1453 66.9565 65.3204 65.6619C62.6147 66.8169 60.1249 68.4233 57.9574 70.4123Z" fill="white"/>
<path d="M46.5501 72.6998C46.5501 72.6998 44.7131 76.7857 47.7836 79.2106C46.7473 81.79 45.9446 84.4572 45.3853 87.1801C45.3853 87.1801 49.8344 80.9863 50.961 80.3295C50.961 80.3295 57.946 82.9223 62.7427 77.0569C65.733 73.3986 66.0232 68.0677 66.0232 68.0677C66.0232 68.0677 66.6839 66.0247 73.1419 63.0844C73.1419 63.0844 66.8901 61.6867 59.7524 66.7579C52.6147 71.8291 49.8459 76.717 49.8459 76.717C49.0079 76.3709 48.2685 75.8231 47.6935 75.1222C47.1185 74.4213 46.7257 73.5891 46.5501 72.6998Z" fill="#1B293B"/>
<path d="M52.5192 77.8435C54.5471 75.3346 59.9013 70.5308 61.0317 69.8816C61.0547 69.8243 62.4219 73.158 60.4398 75.9227C57.2853 80.3256 52.5192 77.8435 52.5192 77.8435Z" fill="#E2D8A7"/>
<path d="M59.4927 71.1685C60.0121 72.2682 59.6683 73.6009 58.347 74.4792C57.0256 75.3575 54.528 75.3346 54.528 75.3346C55.2228 74.5735 56.0047 73.8968 56.8576 73.3184C57.8008 72.6851 58.683 71.9654 59.4927 71.1685Z" fill="white"/>
<path d="M56.8767 73.3184C56.1129 73.9981 56.0632 74.441 56.6399 74.7084C57.2166 74.9757 58.8015 74.1356 58.8015 74.1356C58.3064 74.8201 57.6269 75.3498 56.8423 75.663C54.2034 76.8621 53.4816 76.0449 53.4816 76.0449C53.7542 75.2596 54.281 74.5877 54.9786 74.1356C56.1625 73.3451 56.8767 73.3184 56.8767 73.3184Z" fill="#1B293B"/>
<path d="M101.181 51.8231C96.3041 57.9712 88.139 59.3688 83.9648 57.3754C79.7906 55.3821 77.4725 50.6622 78.8206 43.7543L80.6347 42.9103C84.1401 42.9462 87.6165 42.272 90.8543 40.9284C95.5059 38.9466 97.5643 36.1284 97.7286 35.8611C97.7286 35.8611 97.6827 35.8611 97.6484 35.8878C93.0827 37.1613 88.3753 37.8566 83.6364 37.9575C76.4261 38.095 69.2005 37.1709 62.5975 34.6735C46.5576 28.5636 40.7603 19.7807 38.9196 15.8933C38.6175 15.2769 38.3622 14.6386 38.1558 13.9839C38.5377 14.2207 54.2529 24.0843 72.9088 24.2371C91.7785 24.3898 103.965 21.2318 107.734 28.7011C111.504 36.1704 106.039 45.6712 101.181 51.8231Z" fill="#A59688"/>
<path d="M72.8897 24.2218C64.3924 24.1531 56.5214 22.0643 50.411 19.7883C52.2288 20.7401 54.1052 21.5755 56.0288 22.2896C58.1636 23.0227 65.7787 26.7154 83.8388 26.196C86.1112 26.1311 89.3191 26.1311 91.5953 26.0968C103.094 25.9326 106.489 28.8577 108.536 32.4701C108.678 32.729 108.806 32.9955 108.918 33.2682C108.829 31.6741 108.416 30.1149 107.704 28.6858C103.946 21.2165 91.7595 24.3745 72.8897 24.2218Z" fill="white"/>
<path d="M78.9697 47.5004C78.7863 47.4546 78.5878 47.4164 78.4159 47.3782C78.3968 52.3081 80.524 55.7792 83.9153 57.3678C88.1162 59.3611 96.2851 57.9712 101.17 51.8193C103.549 48.8178 106.05 45.0106 107.559 41.0316C100.822 49.6426 89.0824 50.1696 78.9697 47.5004Z" fill="#625C58"/>
<path d="M24.3768 99.0333C21.3865 98.5063 20.3745 95.6614 16.1926 97.8877C13.7981 99.1517 12.408 102.692 14.4435 106.644C16.4791 110.596 18.4382 111.833 22.3985 113.01C26.3589 114.186 31.5451 115.683 35.8911 112.727C40.2372 109.771 41.1461 104.777 39.1564 101.416C37.1667 98.0557 31.1364 98.2275 29.1009 98.6209C27.0654 99.0142 25.8738 99.2853 24.3768 99.0333Z" fill="#1B293B"/>
<path d="M18.1518 106.159C17.0061 105.013 17.4911 103.486 18.4726 103.902C19.4541 104.318 20.0345 106.625 20.4355 107.931C20.8365 109.237 22.9866 109.741 23.7237 109.317C24.4608 108.893 26.0762 107.083 27.4473 105.697C28.8183 104.311 31.0562 104.498 31.694 105.445C32.3318 106.392 31.8964 105.605 31.8964 105.605C31.8964 105.605 30.2351 105.83 29.4522 106.575C28.6693 107.32 31.3617 106.594 31.2281 107.755C31.0944 108.916 30.2008 110.233 30.2008 110.233C30.2008 110.233 32.6449 111.173 34.1725 109.019C35.7001 106.865 35.5741 104.215 33.4355 102.401C31.2968 100.587 25.4996 102.527 23.7352 102.21C21.9708 101.893 20.3974 99.5679 18.4076 100.862C16.4179 102.157 16.3607 104.337 16.9793 105.193C17.2599 105.629 17.6698 105.967 18.1518 106.159Z" fill="#625C58"/>
<path d="M20.0575 102.959C20.7488 103.371 20.9092 104.567 24.3463 104.532C26.1183 104.513 28.3448 103.455 30.1397 103.486C33.0727 103.539 34.9708 105.361 34.7722 107.938C35.204 107.001 35.307 105.946 35.0644 104.943C34.8218 103.941 34.2479 103.049 33.4356 102.413C31.2931 100.595 25.4996 102.539 23.7353 102.222C21.9709 101.905 20.3974 99.5794 18.4077 100.874C16.6166 102.019 16.3989 103.906 16.819 104.895C16.9489 102.52 19.0952 102.39 20.0575 102.959Z" fill="#A59688"/>
<path d="M17.8806 110.394C20.0193 112.685 21.0466 112.425 23.0668 112.395C25.5439 112.378 28.0125 112.684 30.4108 113.304C35.8491 114.778 38.3123 114.174 41.211 111.688C43.9798 109.317 46.9128 106.724 49.9947 102.886C54.1651 97.6738 55.5781 96.4404 56.9682 94.7716C58.7288 92.6637 60.7032 90.7467 62.1774 90.7773C63.0901 90.8002 64.0487 91.6899 64.6979 92.8814C66.4814 96.1654 66.1415 100.839 64.9194 101.836C62.8953 103.49 61.2837 101.939 53.3631 105.617C48.6924 107.782 42.7424 117.153 33.5462 116.232C26.8209 115.56 27.0539 113.701 23.1547 114.323C21.207 114.636 18.9538 113.349 18.1327 112.292C17.3116 111.234 17.8806 110.394 17.8806 110.394Z" fill="#1B293B"/>
<path d="M57.797 93.8666C57.797 93.8666 59.6378 91.2661 62.25 89.941C64.8622 88.616 66.5158 88.6847 66.5158 88.6847C66.5158 88.6847 62.7006 92.7936 61.3945 94.7029L57.797 93.8666Z" fill="#1B293B"/>
<path d="M42.223 133.928C42.223 133.928 48.4366 140.095 56.2999 142.451C56.2999 142.451 68.4024 127.223 70.0827 108.733L60.6192 112.143C60.6192 112.143 53.0347 128.448 42.223 133.928Z" fill="#1B293B"/>
<path d="M73.3824 108.232C73.3824 108.232 73.8942 116.889 66.9359 136.953C66.9359 136.953 76.9914 121.789 80.7264 111.016C80.7264 111.016 80.3903 117.623 79.764 122.003C79.764 122.003 90.3197 106.323 91.0606 90.342C91.0606 90.342 89.8729 96.4518 82.8688 102.944C80.1273 105.373 76.8905 107.178 73.3824 108.232Z" fill="#1B293B"/>
<path d="M75.5554 60.7702C77.1632 57.6389 84.3888 51.6436 92.6913 51.5138C100.994 51.3839 108.517 51.109 111.825 49.2875C115.132 47.466 116.358 47.1376 116.358 47.1376C116.358 47.1376 115.743 57.1921 111.832 62.7941C107.922 68.3961 103.152 71.2524 97.2092 71.2639C91.2668 71.2754 91.8397 69.0109 91.8397 69.0109C91.8397 69.0109 85.7598 70.3665 79.0269 65.154C77.5613 63.9659 76.376 62.469 75.5554 60.7702Z" fill="#1B293B"/>
<path d="M106.68 62.3588C106.115 62.9774 105.481 63.6304 104.771 64.2682C100.654 68.0257 92.5309 71.2372 92.5309 71.2372L89.6666 69.7594C89.6666 69.7594 94.8108 68.293 97.087 65.7536C99.3631 63.2142 101.429 61.1712 102.464 61.0528C102.464 61.0528 97.2512 59.6247 94.364 60.545L91.4654 61.4805C91.4483 60.9289 91.5446 60.3796 91.7482 59.8667C91.9518 59.3537 92.2585 58.8879 92.6493 58.4982C92.6493 58.4982 84.7172 59.5254 85.122 64.0658C84.6937 63.6533 84.224 63.286 83.7204 62.9698C83.0941 62.6109 82.4334 61.6906 82.0515 59.5674C84.2016 57.7746 86.6867 56.4273 89.3624 55.6039C92.0381 54.7805 94.8508 54.4974 97.6369 54.7711C105.959 55.6227 111.637 52.7281 111.637 52.7281C111.637 52.7281 111.259 57.238 106.68 62.3588Z" fill="#838891"/>
<path d="M83.7204 62.9621C84.224 63.2784 84.6937 63.6456 85.122 64.0581C84.7172 59.5177 92.6493 58.4905 92.6493 58.4905C92.2585 58.8802 91.9518 59.346 91.7482 59.859C91.5446 60.3719 91.4483 60.9212 91.4654 61.4728L94.3678 60.5449C97.255 59.6246 102.468 61.0528 102.468 61.0528C101.781 61.1368 100.631 62.0915 99.2638 63.4547C99.9627 63.4967 100.662 63.5502 101.357 63.6266C102.552 63.764 103.747 63.9397 104.939 64.1115C105.577 63.5235 106.161 62.9278 106.68 62.3588C111.263 57.2379 111.645 52.7205 111.645 52.7205C111.645 52.7205 105.966 55.615 97.6445 54.7634C94.8564 54.4902 92.0418 54.7746 89.3647 55.6C86.6876 56.4254 84.2016 57.7754 82.0515 59.5711C82.4334 61.6829 83.0941 62.6032 83.7204 62.9621Z" fill="#50535A"/>
<path d="M99.8634 32.7336C99.8634 32.7336 99.4089 34.2191 97.6675 35.8878C93.0956 37.1629 88.3817 37.8582 83.6364 37.9575C76.4261 38.095 69.2005 37.1709 62.5975 34.6735C46.5576 28.5636 40.7603 19.7807 38.9196 15.8933C38.6175 15.2769 38.3622 14.6386 38.1558 13.9839C38.4536 14.4918 42.1314 21.8809 56.0593 26.2571C80.501 33.9327 93.8675 29.3808 93.8675 29.3808C93.8675 29.3808 92.5843 32.4816 90.1631 34.4482C93.4634 34.3586 96.7323 33.7808 99.8634 32.7336Z" fill="#625C58"/>
<path d="M52.1182 104.135C55.7462 101.359 60.8484 94.9244 61.8566 94.3096C61.8566 94.3096 62.3111 94.3516 62.6205 95.5392C62.9298 96.7268 62.8572 99.4151 62.04 99.4953C59.0764 99.7855 52.1182 104.135 52.1182 104.135Z" fill="#D3D1CA"/>
<path d="M30.6744 69.6028C30.6324 72.1155 30.8653 73.0816 32.5419 72.5508C33.5108 72.2641 34.3715 71.6934 35.0128 70.9126C35.0128 70.9126 33.0193 77.1752 30.5216 76.5909C28.024 76.0067 30.6744 69.6028 30.6744 69.6028Z" fill="#1B293B"/>
<path d="M31.0753 98.4108C32.8397 98.4452 39.733 96.2609 41.8373 93.8933C41.8373 93.8933 40.9551 100.511 36.5212 100.58C32.0874 100.649 31.0753 98.4108 31.0753 98.4108Z" fill="#1B293B"/>
<path d="M102.067 149.39C102.067 149.39 110.813 109.126 100.998 87.1801C100.998 87.1801 119.153 106.583 115.235 145.839L102.067 149.39Z" fill="#1B293B"/>
<path d="M106.68 62.3588C111.263 57.2379 111.645 52.7205 111.645 52.7205C111.645 52.7205 105.966 55.615 97.6446 54.7634C93.1722 54.3151 88.6739 55.3151 84.8127 57.616C91.1905 55.7067 93.7531 56.1305 97.0336 56.5391C100.907 56.9818 104.806 57.1642 108.705 57.0852C108.705 57.0852 108.987 58.5745 106.703 62.3015C106.703 62.3168 106.684 62.3435 106.68 62.3588Z" fill="white"/>
<path d="M112.13 141.142C112.13 141.142 121.498 126.371 118.821 104.792C118.821 104.792 126.459 117.924 125.814 131.851C127.158 126.256 128.806 120.739 130.752 115.324C130.752 115.324 133.719 100.332 124.508 81.9447C124.508 81.9447 138.71 93.4351 143.121 112.906C143.121 112.906 128.155 142.272 112.86 145.396L112.13 141.142Z" fill="#1B293B"/>
<path d="M77.4535 152.113C77.4535 152.113 91.37 122.197 94.5856 101.397C94.5856 101.397 94.7574 124.847 86.0883 151.658L77.4535 152.113Z" fill="#1B293B"/>
<path d="M55.3375 31.4315C58.8434 31.6338 63.4644 31.0114 65.8971 28.3765C65.8971 28.3765 64.5414 34.3184 59.6988 34.8683C56.1968 35.3036 55.3375 31.4315 55.3375 31.4315Z" fill="#1B293B"/>
<path d="M23.8804 56.9248C27.3862 56.7034 31.9003 55.531 33.9969 52.6288C33.9969 52.6288 33.9549 58.1697 29.2194 59.3153C25.7899 60.144 23.8804 56.9248 23.8804 56.9248Z" fill="#1B293B"/>
<path d="M15.0508 51.8957C17.5942 52.0408 19.5496 52.3196 22.5513 50.5248C22.5513 50.5248 22.3489 54.3702 19.1562 54.3434C16.5975 54.3129 15.0508 51.8957 15.0508 51.8957Z" fill="#1B293B"/>
<path d="M44.5221 25.6881C49.3455 26.4175 52.8323 25.4361 53.6381 24.7106C53.6381 24.7106 52.416 28.1054 49.292 28.0939C48.3667 28.0803 47.4565 27.8566 46.6302 27.4399C45.8039 27.0231 45.0831 26.4242 44.5221 25.6881Z" fill="#1B293B"/>
<path d="M68.5322 36.5446C74.593 34.9905 77.4458 31.714 78.5801 29.5527C78.5801 29.5527 78.8665 35.0706 74.6617 37.7666C71.2361 39.9662 68.5322 36.5446 68.5322 36.5446Z" fill="#1B293B"/>
<path d="M80.5813 38.4883C88.4485 36.5102 92.3477 31.9278 93.8715 29.3808C93.8715 29.3808 94.2763 35.9985 88.7769 39.252C84.301 41.906 80.5813 38.4883 80.5813 38.4883Z" fill="#1B293B"/>
</g>
</g>
<defs>
<clipPath id="clip0_200_399">
<rect width="151" height="148" fill="white"/>
</clipPath>
</defs>
</svg>
